{
  "accessors": [
    {
      "bufferView": 2,
      "componentType": 5126,
      "count": 9652,
      "max": [
        13.038393020629883,
        14.647022247314453,
        17.7506103515625
      ],
      "min": [
        -9.202068328857422,
        -11.381736755371094,
        0.023593902587890625
      ],
      "type": "VEC3"
    },
    {
      "bufferView": 2,
      "byteOffset": 115824,
      "componentType": 5126,
      "count": 9652,
      "max": [
        0.9986112117767334,
        0.9998123645782471,
        0.999974250793457
      ],
      "min": [
        -0.9999352097511292,
        -0.9995930194854736,
        -0.9999945759773254
      ],
      "type": "VEC3"
    },
    {
      "bufferView": 1,
      "componentType": 5126,
      "count": 9652,
      "max": [
        0.9994586706161499,
        0.9995115995407104
      ],
      "min": [
        0.00048828125,
        0.0005374146858230233
      ],
      "type": "VEC2"
    },
    {
      "bufferView": 0,
      "componentType": 5125,
      "count": 35019,
      "type": "SCALAR"
    },
    {
      "bufferView": 2,
      "byteOffset": 231648,
      "componentType": 5126,
      "count": 5684,
      "max": [
        13.038393020629883,
        14.647022247314453,
        17.800947189331055
      ],
      "min": [
        -9.202068328857422,
        -11.381736755371094,
        0.22937583923339844
      ],
      "type": "VEC3"
    },
    {
      "bufferView": 2,
      "byteOffset": 299856,
      "componentType": 5126,
      "count": 5684,
      "max": [
        0.9999849796295166,
        0.9817810654640198,
        0.9996170401573181
      ],
      "min": [
        -0.9996323585510254,
        -0.9998504519462585,
        -0.9999480843544006
      ],
      "type": "VEC3"
    },
    {
      "bufferView": 1,
      "byteOffset": 77216,
      "componentType": 5126,
      "count": 5684,
      "max": [
        1.9989310503005981,
        0.8315428495407104
      ],
      "min": [
        1.00048828125,
        0.000524242059327662
      ],
      "type": "VEC2"
    },
    {
      "bufferView": 0,
      "byteOffset": 140076,
      "componentType": 5125,
      "count": 24975,
      "type": "SCALAR"
    }
  ],
  "asset": {
    "extras": {
      "author": "NaRoCreations (https://sketchfab.com/NaRoCreations)",
      "license": "CC-BY-4.0 (http://creativecommons.org/licenses/by/4.0/)",
      "source": "https://sketchfab.com/3d-models/copper-ore-a9918d7572e8490ebd461e019ed03757",
      "title": "Copper Ore"
    },
    "generator": "Sketchfab-12.65.0",
    "version": "2.0"
  },
  "bufferViews": [
    {
      "buffer": 0,
      "byteLength": 239976,
      "name": "floatBufferViews",
      "target": 34963
    },
    {
      "buffer": 0,
      "byteLength": 122688,
      "byteOffset": 239976,
      "byteStride": 8,
      "name": "floatBufferViews",
      "target": 34962
    },
    {
      "buffer": 0,
      "byteLength": 368064,
      "byteOffset": 362664,
      "byteStride": 12,
      "name": "floatBufferViews",
      "target": 34962
    }
  ],
  "buffers": [
    {
      "byteLength": 730728,
      "uri": "scene.bin"
    }
  ],
  "images": [
    {
      "uri": "textures/tex_u1_v1_baseColor.jpeg"
    },
    {
      "uri": "textures/tex_u2_v1_baseColor.jpeg"
    }
  ],
  "materials": [
    {
      "doubleSided": true,
      "name": "tex_u1_v1",
      "pbrMetallicRoughness": {
        "baseColorTexture": {
          "index": 0
        },
        "metallicFactor": 0.0
      }
    },
    {
      "doubleSided": true,
      "name": "tex_u2_v1",
      "pbrMetallicRoughness": {
        "baseColorTexture": {
          "index": 1
        },
        "metallicFactor": 0.0
      }
    }
  ],
  "meshes": [
    {
      "name": "Object_0",
      "primitives": [
        {
          "attributes": {
            "NORMAL": 1,
            "POSITION": 0,
            "TEXCOORD_0": 2
          },
          "indices": 3,
          "material": 0,
          "mode": 4
        }
      ]
    },
    {
      "name": "Object_1",
      "primitives": [
        {
          "attributes": {
            "NORMAL": 5,
            "POSITION": 4,
            "TEXCOORD_0": 6
          },
          "indices": 7,
          "material": 1,
          "mode": 4
        }
      ]
    }
  ],
  "nodes": [
    {
      "children": [
        1
      ],
      "matrix": [
        1.0,
        0.0,
        0.0,
        0.0,
        0.0,
        2.220446049250313e-16,
        -1.0,
        0.0,
        0.0,
        1.0,
        2.220446049250313e-16,
        0.0,
        0.0,
        0.0,
        0.0,
        1.0
      ],
      "name": "Sketchfab_model"
    },
    {
      "children": [
        2,
        3
      ],
      "name": "model.obj.cleaner.materialmerger.gles"
    },
    {
      "mesh": 0,
      "name": "Object_2"
    },
    {
      "mesh": 1,
      "name": "Object_3"
    }
  ],
  "samplers": [
    {
      "magFilter": 9729,
      "minFilter": 9987,
      "wrapS": 10497,
      "wrapT": 10497
    }
  ],
  "scene": 0,
  "scenes": [
    {
      "name": "Sketchfab_Scene",
      "nodes": [
        0
      ]
    }
  ],
  "textures": [
    {
      "sampler": 0,
      "source": 0
    },
    {
      "sampler": 0,
      "source": 1
    }
  ]
}
